<svg width="476" height="60" viewBox="0 0 476 60" fill="none" xmlns="http://www.w3.org/2000/svg">
<rect width="476" height="60" rx="12" fill="#DFDFDF"/>
<path d="M0 12C0 5.37258 5.37258 0 12 0H121V60H12C5.37258 60 0 54.6274 0 48V12Z" fill="#B1B1B1"/>
<g clip-path="url(#clip0_7_450)">
<path d="M46 30C46 21.7157 39.2843 15 31 15C22.7157 15 16 21.7157 16 30C16 38.2843 22.7157 45 31 45C39.2843 45 46 38.2843 46 30Z" fill="black"/>
<path d="M26.1672 38.1818V22.0145H29.3963V35.4763H35.9636V38.1818H26.1672Z" fill="white"/>
<g clip-path="url(#clip1_7_450)">
<path d="M46 30C46 21.7157 39.2843 15 31 15C22.7157 15 16 21.7157 16 30C16 38.2843 22.7157 45 31 45C39.2843 45 46 38.2843 46 30Z" fill="black"/>
<path d="M31.3709 38.4873C30.3527 38.4873 29.4 38.3128 28.5127 37.9637C27.6254 37.6 26.84 37.0619 26.1563 36.3491C25.4872 35.6364 24.9563 34.7636 24.5636 33.731C24.1854 32.6983 23.9963 31.5127 23.9963 30.1746C23.9963 28.8365 24.1927 27.651 24.5854 26.6182C24.9782 25.571 25.5163 24.6837 26.2 23.9564C26.8982 23.2291 27.6982 22.6764 28.6 22.2982C29.5163 21.9201 30.4836 21.731 31.5018 21.731C32.5345 21.731 33.4508 21.9419 34.2509 22.3637C35.0654 22.771 35.7273 23.251 36.2363 23.8037L34.5563 25.8546C34.149 25.4473 33.6982 25.12 33.2036 24.8728C32.7236 24.6255 32.1782 24.5019 31.5672 24.5019C30.7527 24.5019 30.0182 24.7273 29.3636 25.1782C28.7236 25.6146 28.2218 26.2473 27.8582 27.0764C27.4945 27.9055 27.3127 28.9019 27.3127 30.0655C27.3127 31.2437 27.48 32.2545 27.8145 33.0982C28.1636 33.9273 28.6509 34.5673 29.2763 35.0182C29.9163 35.4692 30.6581 35.6946 31.5018 35.6946C32.2 35.6946 32.8181 35.5491 33.3563 35.2582C33.909 34.9528 34.3964 34.5673 34.8182 34.1019L36.5418 36.1091C35.8727 36.8946 35.109 37.4909 34.2509 37.8982C33.3927 38.291 32.4327 38.4873 31.3709 38.4873Z" fill="white"/>
</g>
</g>
<path d="M414.788 38V35.6H417.988V26.26H415.288V24.42C416.035 24.2867 416.675 24.1267 417.208 23.94C417.755 23.74 418.262 23.4867 418.728 23.18H420.908V35.6H423.688V38H414.788ZM425.805 38V36.3C427.152 35.1 428.299 33.9867 429.245 32.96C430.205 31.9333 430.939 30.98 431.445 30.1C431.952 29.2067 432.205 28.38 432.205 27.62C432.205 27.14 432.119 26.72 431.945 26.36C431.772 26 431.519 25.7267 431.185 25.54C430.865 25.34 430.465 25.24 429.985 25.24C429.452 25.24 428.959 25.3933 428.505 25.7C428.065 25.9933 427.659 26.3467 427.285 26.76L425.645 25.18C426.339 24.4333 427.045 23.8733 427.765 23.5C428.499 23.1133 429.365 22.92 430.365 22.92C431.299 22.92 432.112 23.1133 432.805 23.5C433.512 23.8733 434.059 24.4 434.445 25.08C434.832 25.76 435.025 26.56 435.025 27.48C435.025 28.3733 434.799 29.2867 434.345 30.22C433.905 31.14 433.312 32.06 432.565 32.98C431.819 33.9 430.992 34.8067 430.085 35.7C430.472 35.6467 430.885 35.6067 431.325 35.58C431.779 35.54 432.179 35.52 432.525 35.52H435.725V38H425.805ZM440.982 32.3C440.289 32.3 439.669 32.1133 439.122 31.74C438.576 31.3667 438.149 30.8267 437.842 30.12C437.536 29.4133 437.382 28.5667 437.382 27.58C437.382 26.5933 437.536 25.7533 437.842 25.06C438.149 24.3667 438.576 23.84 439.122 23.48C439.669 23.1067 440.289 22.92 440.982 22.92C441.702 22.92 442.329 23.1067 442.862 23.48C443.409 23.84 443.836 24.3667 444.142 25.06C444.449 25.7533 444.602 26.5933 444.602 27.58C444.602 28.5667 444.449 29.4133 444.142 30.12C443.836 30.8267 443.409 31.3667 442.862 31.74C442.329 32.1133 441.702 32.3 440.982 32.3ZM440.982 30.64C441.409 30.64 441.769 30.4067 442.062 29.94C442.369 29.46 442.522 28.6733 442.522 27.58C442.522 26.5 442.369 25.7333 442.062 25.28C441.769 24.8133 441.409 24.58 440.982 24.58C440.556 24.58 440.189 24.8133 439.882 25.28C439.589 25.7333 439.442 26.5 439.442 27.58C439.442 28.6733 439.589 29.46 439.882 29.94C440.189 30.4067 440.556 30.64 440.982 30.64ZM441.462 38.28L449.522 22.92H451.262L443.222 38.28H441.462ZM451.762 38.28C451.056 38.28 450.429 38.0933 449.882 37.72C449.349 37.3467 448.922 36.8067 448.602 36.1C448.296 35.3933 448.142 34.5467 448.142 33.56C448.142 32.56 448.296 31.7133 448.602 31.02C448.922 30.3267 449.349 29.8 449.882 29.44C450.429 29.0667 451.056 28.88 451.762 28.88C452.456 28.88 453.069 29.0667 453.602 29.44C454.149 29.8 454.576 30.3267 454.882 31.02C455.202 31.7133 455.362 32.56 455.362 33.56C455.362 34.5467 455.202 35.3933 454.882 36.1C454.576 36.8067 454.149 37.3467 453.602 37.72C453.069 38.0933 452.456 38.28 451.762 38.28ZM451.762 36.6C452.189 36.6 452.549 36.3667 452.842 35.9C453.136 35.42 453.282 34.64 453.282 33.56C453.282 32.4533 453.136 31.68 452.842 31.24C452.549 30.7867 452.189 30.56 451.762 30.56C451.322 30.56 450.956 30.7867 450.662 31.24C450.369 31.68 450.222 32.4533 450.222 33.56C450.222 34.64 450.369 35.42 450.662 35.9C450.956 36.3667 451.322 36.6 451.762 36.6Z" fill="#999999"/>
<defs>
<clipPath id="clip0_7_450">
<rect width="30" height="30" fill="white" transform="translate(16 15)"/>
</clipPath>
<clipPath id="clip1_7_450">
<rect width="30" height="30" fill="white" transform="translate(16 15)"/>
</clipPath>
</defs>
</svg>
