<svg width="476" height="60" viewBox="0 0 476 60" fill="none" xmlns="http://www.w3.org/2000/svg">
<rect width="476" height="60" rx="12" fill="#DFDFDF"/>
<path d="M0 12C0 5.37258 5.37258 0 12 0H313V60H12C5.37258 60 0 54.6274 0 48V12Z" fill="#A9D5FF"/>
<g clip-path="url(#clip0_7_440)">
<path d="M46 30C46 21.7157 39.2843 15 31 15C22.7157 15 16 21.7157 16 30C16 38.2843 22.7157 45 31 45C39.2843 45 46 38.2843 46 30Z" fill="#2C99FF"/>
<path d="M26.1672 38.1818V22.0145H29.3963V35.4763H35.9636V38.1818H26.1672Z" fill="white"/>
</g>
<path d="M419.468 38.28C418.775 38.28 418.102 38.1333 417.448 37.84C416.808 37.5467 416.242 37.1 415.748 36.5C415.255 35.8867 414.862 35.1133 414.568 34.18C414.288 33.2333 414.148 32.1067 414.148 30.8C414.148 29.4267 414.302 28.24 414.608 27.24C414.928 26.24 415.355 25.4267 415.888 24.8C416.422 24.16 417.028 23.6867 417.708 23.38C418.402 23.0733 419.128 22.92 419.888 22.92C420.795 22.92 421.575 23.0867 422.228 23.42C422.895 23.74 423.448 24.1333 423.888 24.6L422.328 26.36C422.075 26.0667 421.742 25.8133 421.328 25.6C420.915 25.3867 420.495 25.28 420.068 25.28C419.468 25.28 418.922 25.4533 418.428 25.8C417.948 26.1467 417.562 26.72 417.268 27.52C416.975 28.32 416.828 29.4133 416.828 30.8C416.828 32.08 416.942 33.1067 417.168 33.88C417.408 34.64 417.722 35.1933 418.108 35.54C418.495 35.8867 418.928 36.06 419.408 36.06C419.782 36.06 420.115 35.96 420.408 35.76C420.715 35.5467 420.962 35.24 421.148 34.84C421.335 34.4267 421.428 33.92 421.428 33.32C421.428 32.7333 421.335 32.2533 421.148 31.88C420.975 31.5067 420.728 31.2267 420.408 31.04C420.102 30.8533 419.735 30.76 419.308 30.76C418.908 30.76 418.488 30.8867 418.048 31.14C417.608 31.38 417.202 31.8067 416.828 32.42L416.688 30.44C416.955 30.0667 417.268 29.7467 417.628 29.48C418.002 29.2133 418.382 29.0133 418.768 28.88C419.168 28.7467 419.528 28.68 419.848 28.68C420.675 28.68 421.408 28.8467 422.048 29.18C422.702 29.5133 423.208 30.02 423.568 30.7C423.928 31.38 424.108 32.2533 424.108 33.32C424.108 34.3333 423.895 35.2133 423.468 35.96C423.055 36.6933 422.495 37.2667 421.788 37.68C421.082 38.08 420.308 38.28 419.468 38.28ZM430.845 38.28C429.899 38.28 429.052 38.1133 428.305 37.78C427.559 37.4467 426.965 36.98 426.525 36.38C426.099 35.78 425.885 35.0933 425.885 34.32C425.885 33.68 425.999 33.12 426.225 32.64C426.465 32.1467 426.779 31.72 427.165 31.36C427.552 31 427.972 30.7 428.425 30.46V30.36C427.865 29.96 427.399 29.4733 427.025 28.9C426.652 28.3133 426.465 27.6333 426.465 26.86C426.465 26.06 426.659 25.3667 427.045 24.78C427.432 24.1933 427.959 23.74 428.625 23.42C429.305 23.1 430.072 22.94 430.925 22.94C431.805 22.94 432.565 23.1067 433.205 23.44C433.845 23.76 434.339 24.2133 434.685 24.8C435.045 25.3867 435.225 26.08 435.225 26.88C435.225 27.36 435.132 27.8133 434.945 28.24C434.772 28.6667 434.539 29.0533 434.245 29.4C433.965 29.7333 433.659 30.02 433.325 30.26V30.36C433.792 30.6 434.212 30.9 434.585 31.26C434.959 31.62 435.259 32.0533 435.485 32.56C435.712 33.0533 435.825 33.64 435.825 34.32C435.825 35.0667 435.612 35.74 435.185 36.34C434.772 36.94 434.192 37.4133 433.445 37.76C432.699 38.1067 431.832 38.28 430.845 38.28ZM431.765 29.54C432.125 29.1533 432.392 28.7533 432.565 28.34C432.739 27.9267 432.825 27.5 432.825 27.06C432.825 26.66 432.745 26.3067 432.585 26C432.439 25.68 432.219 25.4333 431.925 25.26C431.632 25.0867 431.279 25 430.865 25C430.359 25 429.932 25.16 429.585 25.48C429.239 25.8 429.065 26.26 429.065 26.86C429.065 27.3133 429.179 27.7067 429.405 28.04C429.645 28.36 429.972 28.64 430.385 28.88C430.799 29.1067 431.259 29.3267 431.765 29.54ZM430.905 36.2C431.332 36.2 431.705 36.1267 432.025 35.98C432.359 35.82 432.619 35.5933 432.805 35.3C432.992 34.9933 433.085 34.6333 433.085 34.22C433.085 33.8333 432.999 33.5 432.825 33.22C432.665 32.9267 432.439 32.6733 432.145 32.46C431.852 32.2333 431.505 32.0267 431.105 31.84C430.705 31.6533 430.265 31.4533 429.785 31.24C429.385 31.5733 429.059 31.98 428.805 32.46C428.552 32.9267 428.425 33.44 428.425 34C428.425 34.44 428.532 34.8267 428.745 35.16C428.972 35.48 429.272 35.7333 429.645 35.92C430.019 36.1067 430.439 36.2 430.905 36.2ZM440.982 32.3C440.289 32.3 439.669 32.1133 439.122 31.74C438.576 31.3667 438.149 30.8267 437.842 30.12C437.536 29.4133 437.382 28.5667 437.382 27.58C437.382 26.5933 437.536 25.7533 437.842 25.06C438.149 24.3667 438.576 23.84 439.122 23.48C439.669 23.1067 440.289 22.92 440.982 22.92C441.702 22.92 442.329 23.1067 442.862 23.48C443.409 23.84 443.836 24.3667 444.142 25.06C444.449 25.7533 444.602 26.5933 444.602 27.58C444.602 28.5667 444.449 29.4133 444.142 30.12C443.836 30.8267 443.409 31.3667 442.862 31.74C442.329 32.1133 441.702 32.3 440.982 32.3ZM440.982 30.64C441.409 30.64 441.769 30.4067 442.062 29.94C442.369 29.46 442.522 28.6733 442.522 27.58C442.522 26.5 442.369 25.7333 442.062 25.28C441.769 24.8133 441.409 24.58 440.982 24.58C440.556 24.58 440.189 24.8133 439.882 25.28C439.589 25.7333 439.442 26.5 439.442 27.58C439.442 28.6733 439.589 29.46 439.882 29.94C440.189 30.4067 440.556 30.64 440.982 30.64ZM441.462 38.28L449.522 22.92H451.262L443.222 38.28H441.462ZM451.762 38.28C451.056 38.28 450.429 38.0933 449.882 37.72C449.349 37.3467 448.922 36.8067 448.602 36.1C448.296 35.3933 448.142 34.5467 448.142 33.56C448.142 32.56 448.296 31.7133 448.602 31.02C448.922 30.3267 449.349 29.8 449.882 29.44C450.429 29.0667 451.056 28.88 451.762 28.88C452.456 28.88 453.069 29.0667 453.602 29.44C454.149 29.8 454.576 30.3267 454.882 31.02C455.202 31.7133 455.362 32.56 455.362 33.56C455.362 34.5467 455.202 35.3933 454.882 36.1C454.576 36.8067 454.149 37.3467 453.602 37.72C453.069 38.0933 452.456 38.28 451.762 38.28ZM451.762 36.6C452.189 36.6 452.549 36.3667 452.842 35.9C453.136 35.42 453.282 34.64 453.282 33.56C453.282 32.4533 453.136 31.68 452.842 31.24C452.549 30.7867 452.189 30.56 451.762 30.56C451.322 30.56 450.956 30.7867 450.662 31.24C450.369 31.68 450.222 32.4533 450.222 33.56C450.222 34.64 450.369 35.42 450.662 35.9C450.956 36.3667 451.322 36.6 451.762 36.6Z" fill="#999999"/>
<defs>
<clipPath id="clip0_7_440">
<rect width="30" height="30" fill="white" transform="translate(16 15)"/>
</clipPath>
</defs>
</svg>
