<svg width="476" height="60" viewBox="0 0 476 60" fill="none" xmlns="http://www.w3.org/2000/svg">
<rect width="476" height="60" rx="12" fill="#DFDFDF"/>
<path d="M0 12C0 5.37258 5.37258 0 12 0H197V60H12C5.37258 60 0 54.6274 0 48V12Z" fill="#FFAEAE"/>
<g clip-path="url(#clip0_7_457)">
<path d="M46 30C46 21.7157 39.2843 15 31 15C22.7157 15 16 21.7157 16 30C16 38.2843 22.7157 45 31 45C39.2843 45 46 38.2843 46 30Z" fill="#FF2C2C"/>
<path d="M26.1672 38.1818V22.0145H29.3963V35.4763H35.9636V38.1818H26.1672Z" fill="white"/>
<g clip-path="url(#clip1_7_457)">
<path d="M46 30C46 21.7157 39.2843 15 31 15C22.7157 15 16 21.7157 16 30C16 38.2843 22.7157 45 31 45C39.2843 45 46 38.2843 46 30Z" fill="#FF2C2C"/>
<path d="M26.1672 38.1818V22.0145H31.7745C32.9236 22.0145 33.9563 22.1673 34.8727 22.4727C35.7891 22.7636 36.5163 23.2727 37.0545 24C37.5927 24.7127 37.8618 25.6872 37.8618 26.9236C37.8618 28.1163 37.5927 29.0982 37.0545 29.8691C36.5163 30.6255 35.7891 31.1854 34.8727 31.5491C33.9563 31.8982 32.9236 32.0727 31.7745 32.0727H29.3963V38.1818H26.1672ZM29.3963 29.52H31.4909C32.5381 29.52 33.3308 29.3018 33.8691 28.8654C34.4217 28.4291 34.6981 27.7818 34.6981 26.9236C34.6981 26.0509 34.4217 25.4472 33.8691 25.1127C33.3308 24.7636 32.5381 24.5891 31.4909 24.5891H29.3963V29.52ZM34.9381 38.1818L31.1854 31.2436L33.4545 29.2363L38.56 38.1818H34.9381Z" fill="white"/>
</g>
</g>
<path d="M418.608 38.28C417.835 38.28 417.142 38.1867 416.528 38C415.915 37.8267 415.368 37.5867 414.888 37.28C414.422 36.96 414.015 36.6067 413.668 36.22L415.048 34.36C415.502 34.7733 415.995 35.1333 416.528 35.44C417.075 35.7333 417.682 35.88 418.348 35.88C418.855 35.88 419.295 35.8 419.668 35.64C420.055 35.48 420.348 35.2467 420.548 34.94C420.762 34.6333 420.868 34.26 420.868 33.82C420.868 33.3267 420.748 32.9067 420.508 32.56C420.282 32.2 419.875 31.9267 419.288 31.74C418.702 31.5533 417.875 31.46 416.808 31.46V29.34C417.715 29.34 418.428 29.2467 418.948 29.06C419.468 28.86 419.835 28.5933 420.048 28.26C420.275 27.9133 420.388 27.52 420.388 27.08C420.388 26.5067 420.215 26.06 419.868 25.74C419.522 25.4067 419.035 25.24 418.408 25.24C417.888 25.24 417.402 25.36 416.948 25.6C416.508 25.8267 416.068 26.14 415.628 26.54L414.108 24.72C414.762 24.1733 415.448 23.74 416.168 23.42C416.888 23.0867 417.682 22.92 418.548 22.92C419.495 22.92 420.328 23.0733 421.048 23.38C421.782 23.6867 422.348 24.1333 422.748 24.72C423.148 25.3067 423.348 26.02 423.348 26.86C423.348 27.66 423.135 28.3467 422.708 28.92C422.282 29.4933 421.675 29.9333 420.888 30.24V30.34C421.435 30.4867 421.928 30.7267 422.368 31.06C422.822 31.38 423.175 31.7867 423.428 32.28C423.695 32.7733 423.828 33.3467 423.828 34C423.828 34.8933 423.588 35.66 423.108 36.3C422.642 36.94 422.008 37.4333 421.208 37.78C420.422 38.1133 419.555 38.28 418.608 38.28ZM430.845 38.28C429.845 38.28 428.965 37.9933 428.205 37.42C427.459 36.8333 426.872 35.9667 426.445 34.82C426.032 33.66 425.825 32.2267 425.825 30.52C425.825 28.8267 426.032 27.42 426.445 26.3C426.872 25.1667 427.459 24.32 428.205 23.76C428.965 23.2 429.845 22.92 430.845 22.92C431.859 22.92 432.739 23.2067 433.485 23.78C434.232 24.34 434.812 25.18 435.225 26.3C435.652 27.42 435.865 28.8267 435.865 30.52C435.865 32.2267 435.652 33.66 435.225 34.82C434.812 35.9667 434.232 36.8333 433.485 37.42C432.739 37.9933 431.859 38.28 430.845 38.28ZM430.845 35.98C431.285 35.98 431.672 35.8133 432.005 35.48C432.339 35.1467 432.599 34.5867 432.785 33.8C432.972 33 433.065 31.9067 433.065 30.52C433.065 29.1467 432.972 28.0733 432.785 27.3C432.599 26.5133 432.339 25.9667 432.005 25.66C431.672 25.34 431.285 25.18 430.845 25.18C430.432 25.18 430.052 25.34 429.705 25.66C429.372 25.9667 429.105 26.5133 428.905 27.3C428.705 28.0733 428.605 29.1467 428.605 30.52C428.605 31.9067 428.705 33 428.905 33.8C429.105 34.5867 429.372 35.1467 429.705 35.48C430.052 35.8133 430.432 35.98 430.845 35.98ZM440.982 32.3C440.289 32.3 439.669 32.1133 439.122 31.74C438.576 31.3667 438.149 30.8267 437.842 30.12C437.536 29.4133 437.382 28.5667 437.382 27.58C437.382 26.5933 437.536 25.7533 437.842 25.06C438.149 24.3667 438.576 23.84 439.122 23.48C439.669 23.1067 440.289 22.92 440.982 22.92C441.702 22.92 442.329 23.1067 442.862 23.48C443.409 23.84 443.836 24.3667 444.142 25.06C444.449 25.7533 444.602 26.5933 444.602 27.58C444.602 28.5667 444.449 29.4133 444.142 30.12C443.836 30.8267 443.409 31.3667 442.862 31.74C442.329 32.1133 441.702 32.3 440.982 32.3ZM440.982 30.64C441.409 30.64 441.769 30.4067 442.062 29.94C442.369 29.46 442.522 28.6733 442.522 27.58C442.522 26.5 442.369 25.7333 442.062 25.28C441.769 24.8133 441.409 24.58 440.982 24.58C440.556 24.58 440.189 24.8133 439.882 25.28C439.589 25.7333 439.442 26.5 439.442 27.58C439.442 28.6733 439.589 29.46 439.882 29.94C440.189 30.4067 440.556 30.64 440.982 30.64ZM441.462 38.28L449.522 22.92H451.262L443.222 38.28H441.462ZM451.762 38.28C451.056 38.28 450.429 38.0933 449.882 37.72C449.349 37.3467 448.922 36.8067 448.602 36.1C448.296 35.3933 448.142 34.5467 448.142 33.56C448.142 32.56 448.296 31.7133 448.602 31.02C448.922 30.3267 449.349 29.8 449.882 29.44C450.429 29.0667 451.056 28.88 451.762 28.88C452.456 28.88 453.069 29.0667 453.602 29.44C454.149 29.8 454.576 30.3267 454.882 31.02C455.202 31.7133 455.362 32.56 455.362 33.56C455.362 34.5467 455.202 35.3933 454.882 36.1C454.576 36.8067 454.149 37.3467 453.602 37.72C453.069 38.0933 452.456 38.28 451.762 38.28ZM451.762 36.6C452.189 36.6 452.549 36.3667 452.842 35.9C453.136 35.42 453.282 34.64 453.282 33.56C453.282 32.4533 453.136 31.68 452.842 31.24C452.549 30.7867 452.189 30.56 451.762 30.56C451.322 30.56 450.956 30.7867 450.662 31.24C450.369 31.68 450.222 32.4533 450.222 33.56C450.222 34.64 450.369 35.42 450.662 35.9C450.956 36.3667 451.322 36.6 451.762 36.6Z" fill="#999999"/>
<defs>
<clipPath id="clip0_7_457">
<rect width="30" height="30" fill="white" transform="translate(16 15)"/>
</clipPath>
<clipPath id="clip1_7_457">
<rect width="30" height="30" fill="white" transform="translate(16 15)"/>
</clipPath>
</defs>
</svg>
