<svg width="22" height="22" viewBox="0 0 22 22" fill="none" xmlns="http://www.w3.org/2000/svg">
<rect width="22" height="22" rx="11" fill="#FF2C2C"/>
<path d="M7.456 17V5.144H11.568C12.4107 5.144 13.168 5.256 13.84 5.48C14.512 5.69333 15.0453 6.06667 15.44 6.6C15.8347 7.12267 16.032 7.83733 16.032 8.744C16.032 9.61867 15.8347 10.3387 15.44 10.904C15.0453 11.4587 14.512 11.8693 13.84 12.136C13.168 12.392 12.4107 12.52 11.568 12.52H9.824V17H7.456ZM9.824 10.648H11.36C12.128 10.648 12.7093 10.488 13.104 10.168C13.5093 9.848 13.712 9.37333 13.712 8.744C13.712 8.104 13.5093 7.66133 13.104 7.416C12.7093 7.16 12.128 7.032 11.36 7.032H9.824V10.648ZM13.888 17L11.136 11.912L12.8 10.44L16.544 17H13.888Z" fill="white"/>
</svg>
